<svg width="594" height="124" viewBox="0 0 594 124" fill="none" xmlns="http://www.w3.org/2000/svg">
<path d="M1.43191e-07 24.0534L19.8919 10.7628L25.9708 14.9122L15.805 34.8417L12.2105 32.3882L14.5126 28.0484L7.90513 23.5382L3.59444 26.5069L1.43191e-07 24.0534ZM11.3438 21.2026L16.3126 24.5943L21.3872 14.9693L20.9115 14.6446L11.3438 21.2026Z" fill="#D72E67"/>
<path d="M23.9619 47.7008L37.6521 30.1332L41.0728 32.1442L39.8926 33.6587L40.3891 33.9506C41.082 33.6464 41.9038 33.5038 42.8543 33.5229C43.818 33.5251 44.9159 33.8884 46.1481 34.6127C47.2515 35.2615 48.0755 36.1139 48.62 37.1701C49.1777 38.2095 49.3678 39.3764 49.1905 40.6707C49.0131 41.965 48.3934 43.2937 47.3312 44.6567L47.0165 45.0605C45.9543 46.4235 44.7645 47.417 43.4469 48.041C42.1293 48.665 40.8049 48.9537 39.4736 48.9071C38.1554 48.8437 36.9446 48.4876 35.8411 47.8389C35.0135 47.3524 34.3868 46.849 33.961 46.3287C33.5404 45.8361 33.2603 45.3525 33.1207 44.8778C33.0126 44.3971 32.9688 43.9543 32.9894 43.5493L32.4929 43.2574L27.4378 49.7443L23.9619 47.7008ZM36.9565 44.4462C38.0416 45.0841 39.1761 45.2971 40.3602 45.0854C41.5757 44.8676 42.6555 44.1529 43.5997 42.9414L43.7964 42.689C44.7405 41.4774 45.0966 40.3495 44.8645 39.3052C44.6456 38.2441 44.0028 37.4 42.9362 36.773C41.8695 36.1459 40.7284 35.9412 39.5129 36.159C38.3104 36.3599 37.2372 37.0662 36.293 38.2778L36.0963 38.5302C35.1522 39.7417 34.7895 40.878 35.0085 41.9391C35.2405 42.9834 35.8899 43.8191 36.9565 44.4462Z" fill="#D72E67"/>
<path d="M45.8916 53.2291L58.8042 34.9254L62.3635 36.8197L57.4752 43.7489L57.9837 44.0196C58.3311 43.8208 58.7632 43.6672 59.2802 43.5587C59.7971 43.4501 60.3807 43.449 61.0309 43.5553C61.7124 43.6542 62.4674 43.9242 63.296 44.3652C64.3883 44.9465 65.1733 45.688 65.651 46.5896C66.1599 47.4839 66.3514 48.4609 66.2254 49.5208C66.1116 50.5632 65.6735 51.6248 64.9111 52.7056L59.4509 60.4454L55.8916 58.5512L61.1673 51.0728C61.856 50.0966 62.1088 49.2241 61.9259 48.4554C61.7617 47.6967 61.1994 47.0617 60.239 46.5506C59.1467 45.9693 58.0594 45.8582 56.9772 46.2173C55.9073 46.559 54.948 47.3312 54.0995 48.5341L49.451 55.1234L45.8916 53.2291Z" fill="#D72E67"/>
<path d="M70.2889 66.3682C68.866 65.6845 67.7592 64.8001 66.9685 63.7152C66.1779 62.6302 65.7823 61.4179 65.7818 60.0781C65.7813 58.7383 66.2395 57.3487 67.1564 55.9093L67.4314 55.4774C68.3483 54.038 69.4603 52.9625 70.7673 52.251C72.0744 51.5396 73.4671 51.1865 74.9454 51.1919C76.4237 51.1972 77.8743 51.5418 79.2972 52.2255C80.7201 52.9093 81.8269 53.7936 82.6176 54.8786C83.4082 55.9635 83.8038 57.1759 83.8043 58.5156C83.8048 59.8554 83.3466 61.245 82.4297 62.6845L82.1546 63.1163C81.2378 64.5558 80.1258 65.6312 78.8188 66.3427C77.5117 67.0542 76.119 67.4072 74.6407 67.4019C73.1624 67.3965 71.7118 67.052 70.2889 66.3682ZM72.2143 63.3454C73.3296 63.8813 74.4646 63.9919 75.6193 63.6773C76.7855 63.3446 77.7698 62.5486 78.572 61.289L78.7439 61.0191C79.5462 59.7596 79.794 58.6214 79.4874 57.6045C79.2115 56.5789 78.5062 55.7935 77.3718 55.2484C76.2565 54.7125 75.1158 54.6108 73.9496 54.9435C72.7948 55.2581 71.8163 56.0452 71.0141 57.3047L70.8422 57.5746C70.0399 58.8341 69.7863 59.9813 70.0815 61.0162C70.3881 62.0331 71.0991 62.8094 72.2143 63.3454Z" fill="#D72E67"/>
<path d="M87.5765 73.8894C86.6184 73.4715 85.9964 72.8534 85.7105 72.0349C85.4549 71.2065 85.5993 70.3213 86.1439 69.3794L90.6284 61.6225L86.9913 60.0362L88.657 57.155L92.2941 58.7413L94.7606 54.475L98.4564 56.0869L95.9899 60.3532L99.979 62.0931L98.3133 64.9742L94.3242 63.2344L90.192 70.3819C89.8717 70.9359 89.9853 71.3324 90.5328 71.5712L93.3486 72.7993L91.683 75.6804L87.5765 73.8894Z" fill="#D72E67"/>
<path d="M103.823 81.1911C102.354 80.613 101.182 79.8098 100.307 78.7815C99.4315 77.7531 98.9376 76.5671 98.825 75.2234C98.7124 73.8796 99.0508 72.4511 99.8401 70.938L100.077 70.484C100.866 68.9708 101.88 67.808 103.117 66.9955C104.354 66.1829 105.706 65.7234 107.174 65.6168C108.641 65.5103 110.109 65.7461 111.578 66.3242C113.047 66.9022 114.219 67.7055 115.095 68.7338C115.97 69.7622 116.464 70.9482 116.576 72.2919C116.689 73.6357 116.35 75.0641 115.561 76.5773L115.324 77.0313C114.535 78.5445 113.522 79.7073 112.284 80.5198C111.047 81.3324 109.695 81.7919 108.228 81.8984C106.76 82.005 105.292 81.7692 103.823 81.1911ZM105.481 78.0135C106.632 78.4665 107.767 78.4916 108.887 78.0886C110.016 77.6667 110.926 76.7937 111.617 75.4697L111.765 75.186C112.455 73.862 112.606 72.7016 112.217 71.7049C111.857 70.6971 111.092 69.9627 109.921 69.5018C108.769 69.0487 107.629 69.0332 106.5 69.4551C105.38 69.858 104.475 70.7216 103.784 72.0456L103.636 72.3293C102.946 73.6533 102.79 74.8232 103.17 75.8388C103.559 76.8355 104.329 77.5604 105.481 78.0135Z" fill="#D72E67"/>
<path d="M118.199 86.6767C117.395 86.3899 116.83 85.8954 116.505 85.1932C116.209 84.4789 116.252 83.7168 116.636 82.9069C117.019 82.0969 117.6 81.5381 118.38 81.2303C119.189 80.9104 119.995 80.8939 120.799 81.1807C121.623 81.4747 122.183 81.9789 122.479 82.6932C122.784 83.3882 122.745 84.1406 122.362 84.9506C121.979 85.7605 121.393 86.329 120.604 86.6561C119.824 86.9638 119.022 86.9707 118.199 86.6767Z" fill="#D72E67"/>
<path d="M129.859 90.7592C129.048 90.4917 128.471 90.0102 128.126 89.3148C127.81 88.6065 127.832 87.842 128.191 87.0211C128.55 86.2003 129.114 85.6261 129.884 85.2985C130.682 84.9581 131.486 84.9217 132.296 85.1892C133.127 85.4634 133.7 85.9546 134.016 86.6629C134.341 87.3516 134.324 88.1064 133.964 88.9272C133.605 89.7481 133.037 90.332 132.259 90.6791C131.489 91.0067 130.689 91.0334 129.859 90.7592Z" fill="#D72E67"/>
<path d="M141.645 94.5675C140.828 94.3193 140.238 93.8512 139.874 93.163C139.538 92.4612 139.537 91.6948 139.872 90.8637C140.207 90.0326 140.754 89.4436 141.512 89.0966C142.299 88.736 143.1 88.6798 143.917 88.9279C144.754 89.1822 145.34 89.6603 145.676 90.362C146.02 91.044 146.024 91.8006 145.69 92.6317C145.355 93.4627 144.804 94.0617 144.038 94.4285C143.279 94.7755 142.482 94.8218 141.645 94.5675Z" fill="#D72E67"/>
<path d="M160.935 99.7836L173.582 79.8849L180.73 81.6387L179.52 104.344L175.293 103.306L175.637 98.3303L167.867 96.424L165.162 100.821L160.935 99.7836ZM170.038 92.9478L175.881 94.3814L176.614 83.3562L176.055 83.219L170.038 92.9478Z" fill="#D72E67"/>
<path d="M183.546 105.25L187.677 89.9256L191.566 90.7164L191.024 92.7247L191.589 92.8395C191.984 92.355 192.59 91.946 193.408 91.6126C194.231 91.2585 195.343 91.2239 196.744 91.5088C197.956 91.7554 198.937 92.2482 199.686 92.9872C200.461 93.7098 200.969 94.6062 201.21 95.6763C201.456 96.7259 201.407 97.8892 201.063 99.1663L198.598 108.312L194.646 107.508L197.029 98.6716C197.34 97.5182 197.28 96.5935 196.85 95.8977C196.441 95.2062 195.704 94.752 194.638 94.5351C193.425 94.2885 192.376 94.4989 191.491 95.1661C190.611 95.8128 189.979 96.8467 189.596 98.268L187.497 106.054L183.546 105.25Z" fill="#D72E67"/>
<path d="M211.344 110.973C209.786 110.719 208.453 110.178 207.346 109.35C206.239 108.522 205.456 107.455 204.997 106.15C204.539 104.845 204.489 103.358 204.85 101.69L204.958 101.189C205.319 99.5211 205.986 98.1511 206.958 97.0794C207.931 96.0076 209.106 95.2602 210.484 94.8373C211.861 94.4143 213.329 94.3299 214.887 94.584C216.445 94.8381 217.778 95.3793 218.885 96.2074C219.992 97.0356 220.775 98.1023 221.234 99.4076C221.693 100.713 221.742 102.2 221.381 103.868L221.273 104.368C220.912 106.036 220.246 107.406 219.273 108.478C218.3 109.55 217.125 110.297 215.747 110.72C214.37 111.143 212.902 111.228 211.344 110.973ZM212.101 107.47C213.323 107.669 214.417 107.449 215.383 106.808C216.355 106.146 216.998 105.085 217.314 103.625L217.381 103.313C217.697 101.853 217.538 100.672 216.905 99.7701C216.297 98.8507 215.372 98.2897 214.13 98.0871C212.909 97.8879 211.812 98.1193 210.841 98.7811C209.874 99.4222 209.233 100.472 208.917 101.932L208.85 102.245C208.534 103.704 208.691 104.896 209.32 105.819C209.953 106.721 210.88 107.271 212.101 107.47Z" fill="#D72E67"/>
<path d="M230.598 113.316C229.561 113.184 228.768 112.761 228.219 112.046C227.694 111.313 227.522 110.41 227.703 109.337L229.195 100.503L225.259 100.001L225.813 96.7195L229.75 97.221L230.57 92.3618L234.57 92.8714L233.749 97.7306L238.066 98.2806L237.512 101.562L233.195 101.012L231.82 109.153C231.714 109.784 231.957 110.137 232.549 110.213L235.597 110.601L235.042 113.882L230.598 113.316Z" fill="#D72E67"/>
<path d="M241.242 114.6L243.958 92.3657L247.973 92.7356L246.945 101.153L247.518 101.206C247.729 100.883 248.036 100.568 248.439 100.263C248.841 99.9573 249.353 99.7261 249.974 99.5691C250.618 99.393 251.408 99.3479 252.342 99.434C253.575 99.5476 254.612 99.9323 255.456 100.588C256.324 101.225 256.951 102.064 257.34 103.107C257.731 104.128 257.846 105.295 257.686 106.608L256.537 116.01L252.522 115.64L253.632 106.555C253.777 105.369 253.588 104.453 253.065 103.805C252.564 103.159 251.772 102.786 250.689 102.687C249.456 102.573 248.45 102.898 247.669 103.661C246.891 104.403 246.413 105.505 246.235 106.966L245.257 114.97L241.242 114.6Z" fill="#D72E67"/>
<path d="M269.3 117.217C267.724 117.132 266.352 116.726 265.185 116.001C264.041 115.256 263.171 114.258 262.577 113.008C262.005 111.739 261.778 110.274 261.897 108.614L261.925 108.231C262.044 106.571 262.477 105.153 263.224 103.976C263.973 102.777 264.967 101.88 266.208 101.285C267.449 100.669 268.858 100.403 270.435 100.488C271.99 100.572 273.317 100.997 274.417 101.761C275.519 102.504 276.345 103.51 276.896 104.779C277.448 106.026 277.666 107.459 277.55 109.076L277.452 110.448L265.916 109.825C265.881 110.912 266.223 111.817 266.941 112.539C267.659 113.262 268.572 113.653 269.679 113.713C270.808 113.774 271.657 113.574 272.224 113.113C272.792 112.653 273.236 112.132 273.555 111.551L276.723 113.453C276.385 113.99 275.905 114.573 275.282 115.201C274.683 115.81 273.898 116.323 272.927 116.74C271.957 117.136 270.749 117.295 269.3 117.217ZM266.163 106.826L273.577 107.227C273.557 106.307 273.237 105.553 272.616 104.964C272.017 104.376 271.195 104.054 270.151 103.998C269.065 103.939 268.182 104.169 267.503 104.688C266.825 105.206 266.378 105.919 266.163 106.826Z" fill="#D72E67"/>
<path d="M282.154 117.293L282.609 101.428L286.576 101.514L286.524 103.305L287.1 103.317C287.353 102.683 287.751 102.222 288.292 101.935C288.855 101.648 289.5 101.513 290.225 101.528L292.144 101.57L292.042 105.152L290.058 105.11C289.034 105.087 288.184 105.347 287.507 105.887C286.83 106.406 286.476 107.23 286.444 108.36L286.185 117.381L282.154 117.293Z" fill="#D72E67"/>
<path d="M309.395 123.776L308.394 101.527L312.36 101.392L312.446 103.31L313.022 103.291C313.356 102.66 313.897 102.098 314.643 101.603C315.389 101.087 316.476 100.804 317.904 100.756C319.184 100.712 320.381 100.992 321.497 101.594C322.613 102.175 323.528 103.062 324.244 104.254C324.959 105.447 325.356 106.906 325.434 108.632L325.457 109.144C325.534 110.87 325.27 112.352 324.664 113.589C324.058 114.826 323.225 115.783 322.167 116.459C321.107 117.114 319.938 117.463 318.658 117.507C317.699 117.539 316.883 117.45 316.212 117.238C315.563 117.046 315.028 116.787 314.607 116.46C314.207 116.111 313.882 115.759 313.631 115.404L313.055 115.424L313.425 123.64L309.395 123.776ZM317.285 114.032C318.543 113.989 319.559 113.56 320.334 112.744C321.129 111.905 321.492 110.719 321.423 109.185L321.408 108.865C321.339 107.331 320.871 106.183 320.004 105.423C319.136 104.641 318.084 104.272 316.847 104.314C315.611 104.356 314.595 104.796 313.8 105.634C313.004 106.45 312.64 107.626 312.709 109.16L312.724 109.48C312.793 111.015 313.261 112.173 314.129 112.954C314.996 113.715 316.048 114.074 317.285 114.032Z" fill="#D72E67"/>
<path d="M330.891 116.426L328.721 94.1311L332.742 93.8357L333.564 102.276L334.138 102.234C334.275 101.881 334.508 101.522 334.837 101.156C335.165 100.79 335.617 100.478 336.192 100.222C336.786 99.9433 337.552 99.7695 338.488 99.7008C339.722 99.6101 340.824 99.8178 341.795 100.324C342.785 100.807 343.584 101.529 344.191 102.49C344.797 103.429 345.164 104.557 345.292 105.873L346.21 115.3L342.189 115.596L341.302 106.487C341.186 105.298 340.802 104.428 340.148 103.877C339.516 103.325 338.657 103.089 337.572 103.168C336.338 103.259 335.421 103.743 334.821 104.621C334.218 105.478 333.988 106.639 334.131 108.104L334.913 116.13L330.891 116.426Z" fill="#D72E67"/>
<path d="M359.347 114.265C357.778 114.441 356.322 114.283 354.976 113.791C353.631 113.298 352.509 112.491 351.608 111.37C350.708 110.248 350.133 108.843 349.881 107.155L349.805 106.649C349.554 104.961 349.699 103.475 350.24 102.191C350.782 100.907 351.631 99.8787 352.787 99.105C353.943 98.3313 355.306 97.8562 356.875 97.6798C358.443 97.5034 359.9 97.6613 361.246 98.1536C362.591 98.646 363.713 99.4529 364.613 100.575C365.514 101.696 366.089 103.101 366.341 104.789L366.417 105.295C366.668 106.983 366.523 108.469 365.982 109.753C365.44 111.037 364.591 112.066 363.435 112.839C362.279 113.613 360.916 114.088 359.347 114.265ZM358.819 110.72C360.048 110.581 361.008 110.077 361.697 109.205C362.383 108.313 362.616 107.128 362.396 105.651L362.349 105.335C362.128 103.858 361.557 102.774 360.635 102.084C359.731 101.37 358.654 101.084 357.403 101.225C356.174 101.363 355.216 101.878 354.53 102.771C353.841 103.642 353.606 104.816 353.826 106.293L353.873 106.61C354.094 108.087 354.666 109.181 355.591 109.892C356.513 110.582 357.589 110.858 358.819 110.72Z" fill="#D72E67"/>
<path d="M378.5 111.191C377.466 111.344 376.56 111.154 375.782 110.623C375.022 110.068 374.537 109.256 374.328 108.189L372.603 99.3963L368.678 99.9772L368.037 96.7114L371.963 96.1306L371.014 91.2947L375.003 90.7045L375.951 95.5404L380.256 94.9034L380.897 98.1691L376.592 98.8062L378.181 106.908C378.304 107.536 378.661 107.806 379.252 107.719L382.291 107.269L382.931 110.535L378.5 111.191Z" fill="#D72E67"/>
<path d="M396.582 108.498C395.029 108.783 393.558 108.729 392.169 108.335C390.779 107.941 389.584 107.219 388.582 106.169C387.581 105.119 386.878 103.764 386.474 102.106L386.352 101.609C385.948 99.9508 385.959 98.4654 386.384 97.1528C386.809 95.8402 387.565 94.7592 388.651 93.9097C389.738 93.0602 391.057 92.4926 392.61 92.207C394.162 91.9214 395.633 91.9756 397.023 92.3697C398.412 92.7638 399.608 93.4859 400.609 94.5361C401.611 95.5862 402.314 96.9404 402.718 98.5984L402.839 99.0959C403.243 100.754 403.233 102.239 402.808 103.552C402.382 104.865 401.627 105.946 400.54 106.795C399.454 107.645 398.135 108.212 396.582 108.498ZM395.733 105.016C396.95 104.792 397.863 104.223 398.474 103.31C399.079 102.375 399.205 101.183 398.851 99.732L398.775 99.4212C398.421 97.9703 397.752 96.9348 396.768 96.3146C395.8 95.6698 394.697 95.4613 393.459 95.689C392.242 95.9129 391.331 96.4919 390.725 97.4262C390.115 98.3397 389.987 99.5219 390.341 100.973L390.416 101.284C390.77 102.734 391.442 103.78 392.431 104.421C393.415 105.041 394.516 105.24 395.733 105.016Z" fill="#D72E67"/>
<path d="M411.978 105.296C411.144 105.477 410.358 105.364 409.622 104.957C408.9 104.525 408.415 103.878 408.168 103.017C407.921 102.156 408.003 101.398 408.413 100.743C408.838 100.063 409.467 99.6325 410.301 99.452C411.156 99.267 411.944 99.3903 412.666 99.8222C413.382 100.233 413.864 100.87 414.111 101.731C414.358 102.592 414.279 103.361 413.875 104.036C413.465 104.691 412.833 105.111 411.978 105.296Z" fill="#D72E67"/>
<path d="M424.139 102.427C423.31 102.627 422.52 102.533 421.77 102.145C421.035 101.731 420.531 101.098 420.258 100.244C419.985 99.3908 420.044 98.6324 420.435 97.969C420.841 97.2803 421.458 96.8359 422.288 96.6358C423.138 96.4307 423.931 96.535 424.666 96.9485C425.395 97.3418 425.896 97.9652 426.169 98.8186C426.441 99.6721 426.386 100.441 426.001 101.124C425.61 101.788 424.989 102.222 424.139 102.427Z" fill="#D72E67"/>
<path d="M436.205 99.2721C435.38 99.4917 434.587 99.4168 433.825 99.0475C433.077 98.6526 432.553 98.0327 432.255 97.1878C431.957 96.3429 431.994 95.5848 432.366 94.9135C432.751 94.2166 433.356 93.7584 434.181 93.5388C435.026 93.3137 435.823 93.3986 436.571 93.7936C437.312 94.1684 437.832 94.7782 438.13 95.6231C438.429 96.468 438.395 97.2362 438.03 97.9275C437.659 98.5988 437.05 99.047 436.205 99.2721Z" fill="#D72E67"/>
<path d="M466.008 90.1442C464.649 90.5869 463.507 90.702 462.583 90.4894C461.658 90.2768 460.905 89.9524 460.323 89.5163L459.776 89.6947L460.537 91.4575L456.764 92.6864L447.884 72.1215L451.718 70.8727L455.029 78.5405L455.576 78.3621C455.647 77.9369 455.798 77.5081 456.028 77.0758C456.278 76.6369 456.665 76.2204 457.189 75.8263C457.724 75.4061 458.449 75.0473 459.362 74.7499C460.579 74.3535 461.831 74.2806 463.119 74.5312C464.399 74.7622 465.594 75.3335 466.705 76.245C467.816 77.1566 468.714 78.4056 469.399 79.992L469.602 80.4621C470.287 82.0485 470.556 83.5023 470.409 84.8235C470.263 86.1447 469.799 87.2676 469.018 88.1922C468.229 89.0971 467.225 89.7478 466.008 90.1442ZM463.457 87.2892C464.633 86.906 465.461 86.2232 465.939 85.2409C466.409 84.2389 466.339 83.0329 465.73 81.6227L465.603 81.3289C464.994 79.9188 464.138 78.9802 463.034 78.5132C461.942 78.02 460.797 77.9683 459.601 78.3582C458.424 78.7414 457.601 79.434 457.131 80.4359C456.653 81.4183 456.718 82.6145 457.327 84.0247L457.454 84.3185C458.063 85.7287 458.924 86.677 460.036 87.1636C461.14 87.6306 462.28 87.6725 463.457 87.2892Z" fill="#D72E67"/>
<path d="M482.801 83.8479C481.641 84.2788 480.498 84.4088 479.373 84.2379C478.259 84.0406 477.24 83.5812 476.317 82.8599C475.395 82.1387 474.646 81.1943 474.071 80.0267L469.887 71.5288L473.667 70.125L477.709 78.3358C478.237 79.4076 478.903 80.1112 479.707 80.4466C480.53 80.7745 481.452 80.7491 482.472 80.3702C483.632 79.9394 484.353 79.2415 484.635 78.2765C484.907 77.2924 484.718 76.14 484.068 74.8194L480.506 67.5847L484.286 66.1808L491.297 80.4206L487.577 81.8022L486.658 79.9361L486.118 80.1366C486.114 80.7043 485.895 81.3403 485.461 82.0448C485.027 82.7492 484.14 83.3503 482.801 83.8479Z" fill="#D72E67"/>
<path d="M501.691 75.9573C500.725 76.3565 499.782 76.4017 498.864 76.093C497.954 75.7574 497.238 75.1124 496.716 74.1582L492.412 66.2998L488.744 67.8151L487.146 64.8963L490.813 63.3809L488.445 59.0588L492.172 57.519L494.539 61.8411L498.561 60.1792L500.16 63.098L496.138 64.76L500.104 72.001C500.411 72.5623 500.841 72.7289 501.393 72.5008L504.232 71.3276L505.831 74.2464L501.691 75.9573Z" fill="#D72E67"/>
<path d="M522.651 66.3523L511.986 54.0335L515.577 52.2716L524.012 62.6767L524.529 62.4229L519.197 50.4955L525 47.6482L534.01 57.7714L534.527 57.5177L528.62 45.8722L532.211 44.1102L538.854 58.4024L532.85 61.3484L523.84 51.2252L523.323 51.4789L528.655 63.4063L522.651 66.3523Z" fill="#D72E67"/>
<path d="M543.777 55.4633L530.592 37.3553L534.126 35.414L539.117 42.2692L539.622 41.9919C539.571 41.6338 539.604 41.2295 539.721 40.7789C539.838 40.3284 540.095 39.8731 540.493 39.413C540.897 38.9255 541.511 38.4557 542.333 38.0038C543.418 37.408 544.531 37.1221 545.675 37.1461C546.824 37.1426 547.918 37.4228 548.957 37.9868C549.983 38.5336 550.886 39.3417 551.664 40.4109L557.24 48.068L553.706 50.0093L548.319 42.6109C547.616 41.6451 546.826 41.0646 545.951 40.8693C545.095 40.6637 544.19 40.8229 543.236 41.3467C542.152 41.9424 541.555 42.7409 541.446 43.7422C541.325 44.7262 541.698 45.8132 542.565 47.0032L547.311 53.5221L543.777 55.4633Z" fill="#D72E67"/>
<path d="M565.72 43.2533C564.752 43.8377 563.764 44.2116 562.757 44.3749C561.737 44.5215 560.765 44.4412 559.842 44.1339C558.924 43.799 558.125 43.2068 557.445 42.3573C556.765 41.5079 556.418 40.6677 556.403 39.8367C556.393 38.9781 556.668 38.1702 557.226 37.4129C557.79 36.6279 558.583 35.9267 559.606 35.3092L563.331 33.0597L562.771 32.3602C562.305 31.7772 561.724 31.4238 561.029 31.3C560.321 31.1595 559.528 31.3539 558.652 31.8832C557.793 32.4014 557.301 32.9706 557.174 33.5906C557.034 34.194 557.126 34.8174 557.452 35.4609L553.494 36.4052C553.207 35.6399 553.094 34.8558 553.156 34.0528C553.222 33.2221 553.53 32.4059 554.081 31.6043C554.636 30.775 555.498 30.0075 556.667 29.3018C558.457 28.2211 560.198 27.7746 561.893 27.9623C563.587 28.1499 565.054 29.0182 566.293 30.5672L569.993 35.1892C570.392 35.6888 570.848 35.7843 571.359 35.4756L572.455 34.814L574.535 37.4123L572.234 38.8016C571.558 39.2096 570.881 39.396 570.203 39.3608C569.524 39.3257 568.985 39.0583 568.585 38.5586L568.565 38.5336L568.045 38.8479C568.132 39.0918 568.181 39.4576 568.192 39.9451C568.189 40.4159 568.014 40.9416 567.666 41.5223C567.318 42.1029 566.67 42.6799 565.72 43.2533ZM564.283 40.3411C565.251 39.7567 565.843 39.041 566.059 38.1941C566.28 37.3195 566.064 36.4742 565.411 35.658L565.211 35.4082L561.732 37.5088C561.093 37.8947 560.69 38.3229 560.525 38.7932C560.36 39.2636 560.457 39.7236 560.817 40.1733C561.177 40.623 561.662 40.8737 562.272 40.9253C562.882 40.9769 563.552 40.7821 564.283 40.3411Z" fill="#D72E67"/>
<path d="M582.522 31.901C581.648 32.4741 580.725 32.7004 579.752 32.5799C578.783 32.4316 577.941 31.9468 577.228 31.1255L571.351 24.3622L568.032 26.5377L565.849 24.0256L569.168 21.8502L565.936 18.1304L569.308 15.9198L572.54 19.6396L576.18 17.2536L578.362 19.7657L574.723 22.1517L580.138 28.3836C580.558 28.8667 581.018 28.9445 581.517 28.617L584.086 26.9328L586.269 29.4448L582.522 31.901Z" fill="#D72E67"/>
</svg>
