<svg width="578" height="112" viewBox="0 0 578 112" fill="none" xmlns="http://www.w3.org/2000/svg">
<path d="M22.6101 108.984L12.3308 96.8908L15.671 94.7489L16.7902 96.0656L17.275 95.7547C17.1631 95.1986 17.2521 94.6015 17.5422 93.9635C17.8184 93.3092 18.3965 92.6999 19.2765 92.1356C20.2283 91.5253 21.1366 91.2066 22.0014 91.1794C22.8524 91.136 23.6585 91.2846 24.4198 91.6253L24.9046 91.3144C24.7678 90.5984 24.8327 89.8913 25.0992 89.193C25.3658 88.4947 26.0109 87.8173 27.0345 87.1609C27.8606 86.6312 28.7441 86.3158 29.6848 86.2149C30.6298 86.0861 31.5761 86.2202 32.5238 86.617C33.4757 86.9861 34.3662 87.6583 35.1951 88.6336L41.9513 96.5822L38.5572 98.7586L31.9875 91.0295C31.4211 90.363 30.8111 89.9882 30.1576 89.9049C29.4904 89.8054 28.8155 89.9744 28.1331 90.412C27.3609 90.9071 26.9527 91.5205 26.9086 92.252C26.8686 92.9557 27.2009 93.7221 27.9055 94.5511L33.9778 101.695L30.5837 103.872L24.014 96.1424C23.4475 95.4759 22.8376 95.101 22.1841 95.0178C21.5168 94.9182 20.842 95.0873 20.1596 95.5249C19.3874 96.02 18.9792 96.6334 18.935 97.3649C18.895 98.0686 19.2274 98.835 19.932 99.664L26.0043 106.808L22.6101 108.984Z" fill="#D72E67"/>
<path d="M48.6319 93.7189C47.6513 94.2818 46.6562 94.6334 45.6466 94.7738C44.6241 94.8973 43.6555 94.7946 42.7408 94.4659C41.8318 94.1095 41.0478 93.4984 40.3891 92.6325C39.7303 91.7666 39.4033 90.9176 39.4082 90.0855C39.4187 89.2258 39.7119 88.4233 40.2879 87.678C40.8695 86.9051 41.6783 86.2214 42.7145 85.6267L46.4889 83.4602L45.9464 82.7472C45.4943 82.1529 44.9226 81.7859 44.2314 81.646C43.5273 81.4891 42.7311 81.6656 41.843 82.1753C40.9734 82.6744 40.4679 83.2329 40.3266 83.8506C40.1723 84.4514 40.25 85.0776 40.5596 85.7292L36.5846 86.5838C36.3157 85.8112 36.2216 85.0237 36.3023 84.2213C36.3885 83.3912 36.7159 82.5813 37.2846 81.7914C37.8589 80.974 38.7381 80.2254 39.9222 79.5458C41.7354 78.5051 43.4858 78.098 45.1734 78.3246C46.861 78.5512 48.3054 79.454 49.5067 81.033L53.0912 85.7444C53.4788 86.2538 53.9315 86.3598 54.4496 86.0624L55.5597 85.4252L57.5748 88.0738L55.2435 89.4119C54.559 89.8048 53.8784 89.9759 53.2018 89.9252C52.5252 89.8744 51.9932 89.5944 51.6057 89.0851L51.5863 89.0596L51.059 89.3623C51.14 89.6085 51.1802 89.9757 51.1795 90.4639C51.1659 90.9352 50.9784 91.4575 50.6171 92.0307C50.2558 92.604 49.5941 93.1667 48.6319 93.7189ZM47.2662 90.7708C48.2468 90.208 48.8551 89.5052 49.0911 88.6624C49.3326 87.7919 49.137 86.9408 48.504 86.1088L48.3103 85.8542L44.7856 87.8772C44.138 88.2489 43.7261 88.6683 43.5498 89.1353C43.3735 89.6024 43.4597 90.0651 43.8085 90.5235C44.1572 90.982 44.6357 91.244 45.2438 91.3096C45.852 91.3752 46.5261 91.1956 47.2662 90.7708Z" fill="#D72E67"/>
<path d="M60.1815 86.9803L47.4554 68.5464L51.0314 66.6839L58.0672 76.8752L58.578 76.6092L59.9056 69.3659L64.5602 66.9417L62.4241 76.6468L73.8046 79.8851L69.2068 82.2797L60.6869 79.6639L60.1761 79.93L63.7575 85.1178L60.1815 86.9803Z" fill="#D72E67"/>
<path d="M83.477 76.0658C82.0485 76.7378 80.6091 77.0519 79.1589 77.0083C77.7166 76.9376 76.3649 76.5316 75.1038 75.7903C73.8507 75.0218 72.784 73.9316 71.9035 72.5196L71.7004 72.1937C70.8199 70.7817 70.3573 69.4191 70.3123 68.1057C70.2561 66.7743 70.5935 65.5737 71.3246 64.504C72.0445 63.4162 73.1187 62.5363 74.5472 61.8644C75.9564 61.2015 77.3685 60.9236 78.7834 61.0306C80.187 61.1195 81.5057 61.5528 82.7395 62.3303C83.962 63.0897 85.0022 64.1574 85.86 65.5331L86.5881 66.7008L76.1348 71.6179C76.7491 72.523 77.5843 73.1017 78.6405 73.3541C79.6966 73.6065 80.7266 73.4966 81.7304 73.0244C82.7535 72.5431 83.3766 71.9808 83.5996 71.3374C83.8226 70.694 83.9015 70.0599 83.8365 69.435L87.7332 69.4983C87.7565 70.0961 87.6824 70.7982 87.5111 71.6046C87.3478 72.3837 86.9656 73.1722 86.3646 73.97C85.7522 74.7497 84.7897 75.4483 83.477 76.0658ZM74.5723 69.0518L81.2901 65.8918C80.7276 65.1497 80.0003 64.684 79.1084 64.4949C78.2358 64.2966 77.3266 64.42 76.3806 64.8649C75.3961 65.328 74.761 65.9311 74.4754 66.6742C74.1897 67.4173 74.222 68.2098 74.5723 69.0518Z" fill="#D72E67"/>
<path d="M99.9069 68.9883C98.002 69.7965 96.2211 70.0684 94.5642 69.8041C92.9074 69.5397 91.5435 68.7365 90.4726 67.3944L93.4191 65.1079C93.9226 65.7003 94.436 66.1159 94.9594 66.3544C95.5024 66.5847 96.0566 66.6835 96.6221 66.6509C97.1967 66.5913 97.7688 66.4407 98.3383 66.1991C99.2024 65.8325 99.7623 65.4222 100.018 64.9684C100.263 64.4959 100.265 64.0458 100.025 63.6181C99.7842 63.1904 99.4048 62.9484 98.8865 62.8919C98.3578 62.8168 97.6196 62.8882 96.6718 63.106L95.7685 63.3165C94.6427 63.5638 93.5687 63.7086 92.5465 63.7508C91.5138 63.7743 90.58 63.6062 89.7452 63.2464C88.9105 62.8866 88.2369 62.2512 87.7244 61.3401C86.9506 59.9641 86.89 58.6885 87.5427 57.5134C88.1849 56.3197 89.3701 55.3562 91.0983 54.623C92.7284 53.9314 94.2769 53.7005 95.744 53.9302C97.211 54.1599 98.4252 54.7618 99.3865 55.7358L96.5046 58.2022C95.9501 57.5623 95.3437 57.1977 94.6854 57.1085C94.0468 57.011 93.3739 57.1122 92.6669 57.4121C91.9599 57.7121 91.4878 58.0621 91.2506 58.4621C91.003 58.8436 90.9942 59.2388 91.2243 59.6479C91.4752 60.0942 91.8598 60.3456 92.3781 60.4021C92.8859 60.44 93.5051 60.373 94.2355 60.2013L95.1388 59.9908C96.3431 59.7102 97.4761 59.5404 98.5376 59.4816C99.6083 59.3958 100.561 59.5328 101.396 59.8926C102.24 60.2255 102.934 60.8754 103.477 61.8423C104.293 63.2927 104.366 64.6551 103.696 65.9296C103.036 67.1772 101.773 68.1967 99.9069 68.9883Z" fill="#D72E67"/>
<path d="M125.375 58.9561C124.391 59.3081 123.45 59.3062 122.553 58.9505C121.668 58.5684 120.992 57.8857 120.526 56.9026L116.688 48.8059L112.952 50.1418L111.527 47.1345L115.263 45.7986L113.152 41.3454L116.949 39.9879L119.06 44.4411L123.158 42.9759L124.583 45.9832L120.485 47.4484L124.021 54.9089C124.295 55.4873 124.713 55.6759 125.276 55.4748L128.168 54.4405L129.594 57.4478L125.375 58.9561Z" fill="#D72E67"/>
<path d="M134.347 56.0114L125.681 35.3557L129.525 34.139L132.806 41.9587L133.355 41.7849C133.386 41.4186 133.508 41.0234 133.722 40.5992C133.935 40.175 134.286 39.7744 134.773 39.3975C135.272 38.9944 135.969 38.6512 136.864 38.368C138.043 37.9946 139.182 37.9351 140.279 38.1894C141.389 38.4176 142.382 38.9168 143.258 39.6869C144.125 40.4373 144.815 41.4223 145.327 42.642L148.991 51.3764L145.147 52.5931L141.607 44.1538C141.144 43.0521 140.513 42.316 139.712 41.9455C138.932 41.5684 138.023 41.5441 136.986 41.8724C135.806 42.2458 135.052 42.9191 134.723 43.8923C134.386 44.8458 134.502 46.0013 135.072 47.3587L138.191 54.7947L134.347 56.0114Z" fill="#D72E67"/>
<path d="M160.199 48.9187C158.676 49.3347 157.216 49.3921 155.817 49.0907C154.433 48.7637 153.204 48.1185 152.131 47.155C151.072 46.1659 150.259 44.8891 149.692 43.3245L149.562 42.9635C148.995 41.3989 148.824 39.9578 149.048 38.6402C149.264 37.3025 149.836 36.1653 150.763 35.2287C151.683 34.2719 152.905 33.5856 154.428 33.1695C155.93 32.7591 157.357 32.733 158.708 33.0914C160.051 33.4296 161.243 34.0961 162.281 35.0909C163.313 36.0655 164.104 37.3151 164.656 38.8395L165.125 40.1333L153.981 43.1778C154.393 44.1895 155.085 44.9151 156.059 45.3546C157.032 45.7941 158.054 45.8676 159.124 45.5753C160.215 45.2773 160.934 44.8273 161.281 44.2254C161.628 43.6235 161.834 43.0052 161.898 42.3705L165.666 43.1266C165.567 43.7268 165.352 44.4138 165.022 45.1874C164.705 45.9353 164.173 46.6536 163.427 47.3423C162.675 48.0109 161.598 48.5363 160.199 48.9187ZM152.988 40.3411L160.15 38.3845C159.755 37.5445 159.144 36.9509 158.317 36.6036C157.511 36.2508 156.604 36.2121 155.595 36.4876C154.546 36.7743 153.807 37.2628 153.378 37.953C152.95 38.6432 152.82 39.4392 152.988 40.3411Z" fill="#D72E67"/>
<path d="M177.858 44.6373C175.843 45.1081 174.059 45.066 172.506 44.5111C170.953 43.9561 169.795 42.9154 169.033 41.389L172.363 39.6274C172.729 40.3067 173.142 40.8113 173.601 41.1412C174.08 41.4663 174.597 41.6622 175.153 41.7292C175.722 41.7708 176.309 41.7213 176.911 41.5806C177.825 41.367 178.453 41.0564 178.795 40.6488C179.13 40.2208 179.225 39.7725 179.08 39.3038C178.935 38.8351 178.616 38.527 178.125 38.3795C177.628 38.2117 176.897 38.153 175.932 38.2036L175.012 38.2546C173.869 38.3032 172.797 38.2586 171.796 38.1209C170.789 37.9628 169.918 37.631 169.182 37.1254C168.447 36.6199 167.924 35.8678 167.615 34.8693C167.148 33.3613 167.352 32.0789 168.228 31.022C169.097 29.9448 170.446 29.1926 172.274 28.7655C173.998 28.3626 175.548 28.4047 176.924 28.8918C178.3 29.3789 179.354 30.1925 180.086 31.3327L176.781 33.2849C176.375 32.5494 175.862 32.0792 175.242 31.8745C174.642 31.6649 173.968 31.6475 173.221 31.8223C172.473 31.997 171.943 32.2629 171.63 32.6201C171.311 32.9568 171.221 33.3494 171.36 33.7977C171.511 34.2868 171.832 34.605 172.324 34.7525C172.809 34.8796 173.423 34.9218 174.167 34.879L175.087 34.828C176.314 34.76 177.448 34.79 178.49 34.918C179.547 35.0208 180.443 35.325 181.179 35.8305C181.929 36.3108 182.468 37.0808 182.796 38.1405C183.288 39.73 183.078 41.1012 182.165 42.2541C181.267 43.3818 179.831 44.1762 177.858 44.6373Z" fill="#D72E67"/>
<path d="M195.372 41.0594C193.822 41.3615 192.368 41.3087 191.009 40.9011C189.666 40.4688 188.507 39.7293 187.533 38.6826C186.574 37.6112 185.886 36.2699 185.47 34.6588L185.374 34.2871C184.958 32.676 184.922 31.2185 185.267 29.9146C185.606 28.5901 186.28 27.4934 187.287 26.6245C188.288 25.7349 189.564 25.1391 191.114 24.837C192.642 24.539 194.06 24.6206 195.367 25.0817C196.668 25.5222 197.788 26.2803 198.726 27.3558C199.658 28.4106 200.327 29.7229 200.733 31.2927L201.077 32.6249L189.739 34.8355C190.053 35.8807 190.672 36.6603 191.597 37.1743C192.521 37.6883 193.528 37.8392 194.617 37.6269C195.727 37.4105 196.482 37.0138 196.883 36.4367C197.283 35.8595 197.545 35.2553 197.668 34.6239L201.335 35.6662C201.181 36.2604 200.904 36.9327 200.504 37.6832C200.12 38.409 199.525 39.0889 198.722 39.723C197.912 40.3363 196.796 40.7818 195.372 41.0594ZM189.017 31.917L196.304 30.4964C195.991 29.6246 195.44 28.9834 194.652 28.5729C193.885 28.1584 192.989 28.0511 191.963 28.2512C190.895 28.4594 190.116 28.8932 189.627 29.5527C189.138 30.2122 188.934 31.0003 189.017 31.917Z" fill="#D72E67"/>
<path d="M223.733 36.1638C222.697 36.3045 221.795 36.1044 221.026 35.5635C220.275 34.9988 219.803 34.181 219.61 33.1102L218.022 24.292L214.09 24.826L213.501 21.5507L217.433 21.0167L216.56 16.1666L220.555 15.624L221.428 20.474L225.74 19.8883L226.33 23.1637L222.018 23.7494L223.48 31.8748C223.594 32.5046 223.947 32.7794 224.538 32.699L227.582 32.2856L228.172 35.5609L223.733 36.1638Z" fill="#D72E67"/>
<path d="M234.504 34.8874L230.298 19.3501L234.28 18.9731L237.32 31.89L237.893 31.8357L238.294 18.593L244.729 17.9837L248.406 30.8403L248.979 30.786L248.743 17.6037L252.726 17.2267L252.472 33.1863L245.814 33.8167L242.137 20.9601L241.564 21.0143L241.163 34.257L234.504 34.8874Z" fill="#D72E67"/>
<path d="M265.282 33.0348C263.706 33.1136 262.268 32.8651 260.968 32.2894C259.669 31.7136 258.617 30.8372 257.812 29.66C257.007 28.4829 256.548 27.0429 256.435 25.3399L256.402 24.829C256.289 23.1261 256.554 21.6499 257.198 20.4003C257.842 19.1508 258.772 18.1753 259.987 17.4739C261.201 16.7724 262.597 16.3823 264.174 16.3035C265.751 16.2247 267.189 16.4732 268.488 17.0489C269.787 17.6247 270.84 18.5012 271.644 19.6783C272.449 20.8554 272.908 22.2955 273.021 23.9984L273.055 24.5093C273.168 26.2122 272.902 27.6884 272.258 28.938C271.614 30.1875 270.684 31.163 269.47 31.8645C268.255 32.5659 266.859 32.956 265.282 33.0348ZM265.045 29.4587C266.281 29.3969 267.278 28.952 268.035 28.1239C268.791 27.2745 269.12 26.1048 269.021 24.6148L269 24.2954C268.902 22.8054 268.421 21.6868 267.559 20.9396C266.717 20.1702 265.668 19.8168 264.411 19.8797C263.175 19.9414 262.179 20.397 261.423 21.2463C260.666 22.0744 260.336 23.2335 260.435 24.7236L260.456 25.0429C260.555 26.5329 261.036 27.6622 261.899 28.4306C262.761 29.1777 263.81 29.5204 265.045 29.4587Z" fill="#D72E67"/>
<path d="M288.416 38.423L288.79 16.1541L292.758 16.2044L292.726 18.1242L293.302 18.1315C293.675 17.5175 294.249 16.9807 295.025 16.5212C295.801 16.0403 296.904 15.809 298.333 15.8271C299.613 15.8433 300.792 16.1783 301.869 16.832C302.946 17.4644 303.806 18.3927 304.446 19.6169C305.087 20.8411 305.393 22.3171 305.364 24.0448L305.355 24.5568C305.326 26.2845 304.971 27.7521 304.289 28.9596C303.608 30.167 302.717 31.0838 301.619 31.7099C300.52 32.3147 299.331 32.609 298.051 32.5927C297.092 32.5806 296.283 32.453 295.626 32.2099C294.989 31.9885 294.471 31.7046 294.072 31.3582C293.694 30.9907 293.391 30.6242 293.162 30.2586L292.586 30.2513L292.448 38.4741L288.416 38.423ZM296.895 29.0578C298.153 29.0738 299.194 28.6923 300.018 27.9133C300.864 27.1133 301.3 25.9454 301.325 24.4097L301.331 24.0897C301.357 22.5539 300.96 21.3861 300.141 20.5864C299.323 19.7653 298.295 19.3469 297.058 19.3312C295.821 19.3155 294.78 19.7077 293.934 20.5077C293.089 21.2863 292.653 22.4436 292.627 23.9793L292.622 24.2993C292.596 25.8351 292.993 27.0135 293.811 27.8346C294.63 28.6344 295.657 29.0421 296.895 29.0578Z" fill="#D72E67"/>
<path d="M309.098 32.435L310.673 10.0904L314.699 10.3045L314.103 18.7635L314.678 18.7941C314.873 18.4627 315.163 18.1363 315.549 17.8151C315.935 17.4939 316.434 17.2427 317.046 17.0616C317.68 16.8603 318.466 16.7846 319.403 16.8345C320.639 16.9002 321.694 17.2446 322.57 17.8679C323.468 18.471 324.138 19.2863 324.578 20.3137C325.021 21.3197 325.195 22.4825 325.102 23.8019L324.437 33.2504L320.41 33.0364L321.054 23.907C321.138 22.7153 320.902 21.8057 320.348 21.1781C319.815 20.5517 319.005 20.2096 317.918 20.1518C316.683 20.0861 315.695 20.4501 314.955 21.2438C314.216 22.0163 313.795 23.1367 313.691 24.605L313.125 32.6491L309.098 32.435Z" fill="#D72E67"/>
<path d="M336.297 34.747C334.725 34.6007 333.352 34.1517 332.177 33.3998C331.002 32.648 330.128 31.6351 329.554 30.361C328.981 29.0869 328.799 27.603 329.008 25.9092L329.071 25.401C329.28 23.7072 329.82 22.2905 330.691 21.1508C331.562 20.0112 332.663 19.1821 333.995 18.6636C335.326 18.145 336.778 17.9589 338.35 18.1052C339.922 18.2515 341.295 18.7006 342.47 19.4524C343.645 20.2042 344.519 21.2172 345.092 22.4913C345.666 23.7653 345.848 25.2493 345.639 26.9431L345.576 27.4513C345.367 29.1451 344.827 30.5618 343.956 31.7014C343.085 32.8411 341.984 33.6702 340.652 34.1887C339.32 34.7072 337.869 34.8933 336.297 34.747ZM336.736 31.19C337.968 31.3047 339.036 31.0079 339.939 30.2996C340.846 29.5702 341.391 28.4644 341.573 26.9823L341.613 26.6647C341.795 25.1826 341.532 24.0123 340.821 23.1538C340.134 22.2761 339.164 21.7789 337.911 21.6622C336.679 21.5476 335.61 21.855 334.704 22.5844C333.8 23.2927 333.256 24.3879 333.073 25.8699L333.034 26.1875C332.851 27.6696 333.114 28.8505 333.822 29.7302C334.532 30.5887 335.504 31.0753 336.736 31.19Z" fill="#D72E67"/>
<path d="M354.576 36.3438C353.539 36.2098 352.747 35.7849 352.199 35.0693C351.676 34.3354 351.507 33.4323 351.691 32.3599L353.205 23.5287L349.269 23.0198L349.832 19.7396L353.767 20.2486L354.6 15.3914L358.598 15.9086L357.766 20.7657L362.082 21.3239L361.519 24.604L357.203 24.0459L355.808 32.1832C355.7 32.814 355.942 33.1677 356.535 33.2443L359.581 33.6383L359.019 36.9184L354.576 36.3438Z" fill="#D72E67"/>
<path d="M371.492 39.2927C369.935 39.0341 368.604 38.4893 367.5 37.6581C366.396 36.8269 365.617 35.7581 365.163 34.4517C364.709 33.1454 364.665 31.6588 365.032 29.992L365.142 29.492C365.509 27.8252 366.18 26.4574 367.157 25.3886C368.134 24.3198 369.312 23.576 370.691 23.1571C372.071 22.7382 373.539 22.658 375.096 22.9166C376.654 23.1751 377.984 23.72 379.089 24.5512C380.193 25.3824 380.972 26.4512 381.426 27.7575C381.88 29.0639 381.924 30.5505 381.557 32.2173L381.447 32.7173C381.08 34.3841 380.408 35.7519 379.431 36.8207C378.455 37.8895 377.276 38.6333 375.897 39.0522C374.518 39.4711 373.05 39.5513 371.492 39.2927ZM372.263 35.7925C373.483 35.9951 374.578 35.7774 375.548 35.1393C376.522 34.4803 377.169 33.4216 377.49 31.9632L377.559 31.6507C377.88 30.1922 377.725 29.0112 377.095 28.1075C376.491 27.1865 375.568 26.623 374.326 26.4168C373.105 26.2142 372.008 26.4423 371.034 27.1013C370.065 27.7394 369.42 28.7876 369.099 30.2461L369.03 30.5586C368.709 32.017 368.861 33.2085 369.487 34.133C370.117 35.0367 371.042 35.5898 372.263 35.7925Z" fill="#D72E67"/>
<path d="M389.937 42.6892C387.91 42.2736 386.366 41.5008 385.305 40.3705C384.244 39.2403 383.796 37.8444 383.961 36.1829L387.849 36.0019C387.799 36.7524 387.886 37.3678 388.108 37.8481C388.352 38.3327 388.699 38.719 389.15 39.0071C389.628 39.2789 390.17 39.4769 390.776 39.6011C391.695 39.7896 392.417 39.7744 392.939 39.5556C393.468 39.3161 393.796 38.9597 393.925 38.4862C394.054 38.0127 393.942 37.6096 393.592 37.2768C393.246 36.9235 392.636 36.5703 391.761 36.2171L390.926 35.8828C389.895 35.4542 388.978 34.9728 388.174 34.4386C387.376 33.8838 386.792 33.2317 386.422 32.4821C386.052 31.7325 386.004 30.8533 386.278 29.8446C386.692 28.3211 387.573 27.2736 388.919 26.7021C390.272 26.1099 391.867 26.0023 393.706 26.3793C395.441 26.7348 396.78 27.4113 397.722 28.4086C398.664 29.4059 399.146 30.5586 399.165 31.8666L395.195 32.2265C395.241 31.41 395.047 30.7834 394.614 30.347C394.202 29.9147 393.62 29.6215 392.867 29.4673C392.115 29.3131 391.504 29.3291 391.034 29.5154C390.57 29.681 390.276 29.9903 390.153 30.4432C390.019 30.9373 390.127 31.3507 390.478 31.6834C390.835 31.9956 391.351 32.2862 392.028 32.5554L392.864 32.8897C393.979 33.3355 394.958 33.8297 395.804 34.3725C396.676 34.8989 397.297 35.5369 397.666 36.2865C398.063 37.0197 398.116 37.9216 397.825 38.9922C397.389 40.5979 396.455 41.7214 395.023 42.3624C393.618 42.9872 391.922 43.0961 389.937 42.6892Z" fill="#D72E67"/>
<path d="M417.235 49.0402C416.02 48.7125 414.981 48.1128 414.118 47.2414C413.283 46.3554 412.751 45.2538 412.522 43.9366C412.293 42.6193 412.469 41.1472 413.051 39.52L413.223 39.0379C413.805 37.4108 414.62 36.1108 415.667 35.138C416.715 34.1652 417.869 33.5292 419.127 33.23C420.393 32.9107 421.644 32.9177 422.88 33.251C423.807 33.501 424.54 33.8198 425.079 34.2075C425.645 34.5806 426.067 34.9806 426.343 35.4076C426.62 35.8345 426.796 36.2566 426.873 36.6737L427.429 36.8237L430.241 28.9593L434.134 30.0093L426.593 51.1017L422.762 50.0684L423.408 48.2605L422.852 48.1105C422.301 48.5785 421.572 48.9435 420.665 49.2055C419.779 49.4731 418.636 49.418 417.235 49.0402ZM419.594 46.0424C420.789 46.3646 421.92 46.2624 422.99 45.7358C424.066 45.1891 424.862 44.1926 425.379 42.7463L425.487 42.445C426.004 40.9986 425.994 39.7955 425.457 38.8356C424.947 37.8611 424.084 37.21 422.869 36.8822C421.674 36.56 420.539 36.6722 419.463 37.2189C418.394 37.7455 417.601 38.732 417.084 40.1783L416.976 40.4796C416.459 41.926 416.465 43.1391 416.996 44.1192C417.533 45.0791 418.399 45.7201 419.594 46.0424Z" fill="#D72E67"/>
<path d="M430.98 52.3884L436.927 37.6728L440.784 38.8487L434.836 53.5643L430.98 52.3884ZM439.551 36.5399C438.857 36.3284 438.353 35.9304 438.039 35.346C437.746 34.7677 437.743 34.1226 438.031 33.4105C438.318 32.6985 438.785 32.1964 439.43 31.9044C440.096 31.6186 440.775 31.5814 441.469 31.793C442.183 32.0107 442.687 32.4087 442.981 32.987C443.274 33.5652 443.277 34.2103 442.989 34.9224C442.702 35.6344 442.235 36.1365 441.59 36.4285C440.945 36.7206 440.265 36.7577 439.551 36.5399Z" fill="#D72E67"/>
<path d="M443.891 56.3831L448.976 44.9163L445.153 43.6369L446.502 40.5947L450.326 41.874L451.519 39.1828C451.96 38.1883 452.614 37.5 453.481 37.118C454.376 36.7233 455.319 36.6918 456.31 37.0235L460.256 38.3435L458.906 41.3857L456.296 40.5125C455.73 40.3229 455.317 40.5207 455.058 41.1057L454.149 43.1534L458.094 44.4734L456.745 47.5156L452.8 46.1956L447.714 57.6624L443.891 56.3831Z" fill="#D72E67"/>
<path d="M457.92 61.1698L463.439 49.9054L459.657 48.5074L461.122 45.5189L464.904 46.9168L466.199 44.2732C466.678 43.2961 467.358 42.6312 468.24 42.2784C469.151 41.9138 470.097 41.9128 471.078 42.2752L474.979 43.7176L473.515 46.7061L470.934 45.7519C470.374 45.5448 469.953 45.7286 469.671 46.3033L468.685 48.3148L472.587 49.7572L471.123 52.7457L467.221 51.3034L461.702 62.5678L457.92 61.1698Z" fill="#D72E67"/>
<path d="M475.768 68.4748C474.308 67.8751 473.174 67.0539 472.365 66.0112C471.586 64.9578 471.172 63.7674 471.121 62.4401C471.101 61.1021 471.489 59.7024 472.284 58.2408L472.468 57.9035C473.263 56.442 474.258 55.3028 475.451 54.486C476.654 53.6504 477.966 53.169 479.388 53.0419C480.819 52.8961 482.265 53.123 483.725 53.7226C485.166 54.3142 486.251 55.1379 486.98 56.1938C487.719 57.231 488.089 58.4145 488.09 59.7444C488.1 61.0555 487.718 62.4231 486.943 63.8472L486.285 65.0558L475.599 60.6679C475.118 61.6397 475.07 62.5713 475.454 63.4626C475.838 64.354 476.543 65.0103 477.57 65.4317C478.616 65.8611 479.502 65.9617 480.23 65.7333C480.958 65.5049 481.593 65.1811 482.135 64.7617L484.358 67.5314C483.817 67.9052 483.122 68.2731 482.273 68.6352C481.454 68.9866 480.498 69.1902 479.405 69.2459C478.323 69.2828 477.11 69.0258 475.768 68.4748ZM477.067 58.0381L483.934 60.858C484.294 60.0198 484.3 59.2316 483.954 58.4932C483.627 57.7629 482.98 57.1993 482.013 56.8022C481.006 56.3889 480.075 56.3044 479.217 56.5484C478.36 56.7925 477.643 57.2891 477.067 58.0381Z" fill="#D72E67"/>
<path d="M486.554 72.4581L494.713 58.8437L498.329 60.4784L497.407 62.0155L497.932 62.2528C498.475 61.8005 499.066 61.5561 499.706 61.5196C500.365 61.4919 501.025 61.6275 501.686 61.9263L503.435 62.7173L501.593 65.7915L499.785 64.9742C498.852 64.5523 497.941 64.4431 497.054 64.6464C496.177 64.8314 495.448 65.4089 494.867 66.3787L490.228 74.1192L486.554 72.4581Z" fill="#D72E67"/>
<path d="M505.437 81.6998C504.023 80.9992 502.952 80.1026 502.225 79.01C501.529 77.9091 501.209 76.6989 501.265 75.3794C501.351 74.0516 501.851 72.6921 502.764 71.3011L502.975 70.9801C503.888 69.5891 504.975 68.5321 506.235 67.8091C507.507 67.0683 508.859 66.6866 510.293 66.664C511.738 66.6236 513.168 66.9537 514.583 67.6544C515.978 68.3456 516.999 69.2411 517.645 70.3409C518.303 71.4228 518.579 72.623 518.473 73.9414C518.379 75.242 517.887 76.5699 516.998 77.9252L516.242 79.0755L505.891 73.9483C505.332 74.8768 505.209 75.7968 505.523 76.7083C505.836 77.6198 506.49 78.3218 507.484 78.8141C508.497 79.316 509.377 79.4801 510.125 79.3067C510.872 79.1332 511.534 78.8584 512.11 78.4821L514.115 81.3895C513.543 81.7206 512.818 82.0348 511.938 82.332C511.09 82.6208 510.117 82.7531 509.018 82.7288C507.931 82.6867 506.737 82.3437 505.437 81.6998ZM507.57 71.448L514.223 74.743C514.65 73.9383 514.719 73.1574 514.431 72.4002C514.162 71.6525 513.559 71.0466 512.622 70.5827C511.647 70.0998 510.721 69.9481 509.843 70.1278C508.965 70.3074 508.207 70.7475 507.57 71.448Z" fill="#D72E67"/>
<path d="M515.772 86.2874L525.102 73.4468L528.581 75.3541L527.359 77.0368L527.864 77.3137C528.414 76.988 529.142 76.7959 530.048 76.7373C530.966 76.6615 532.052 76.9671 533.306 77.6541C534.391 78.2488 535.166 78.9997 535.632 79.9066C536.129 80.8065 536.307 81.7851 536.167 82.8423C536.039 83.8823 535.586 84.9374 534.809 86.0074L529.241 93.6703L525.706 91.7323L531.085 84.3283C531.787 83.3618 532.052 82.4934 531.88 81.723C531.726 80.9629 531.172 80.3214 530.217 79.7984C529.132 79.2037 528.046 79.0788 526.958 79.4237C525.883 79.7514 524.913 80.5107 524.048 81.7016L519.308 88.2254L515.772 86.2874Z" fill="#D72E67"/>
<path d="M537.825 98.6578C536.928 98.1204 536.395 97.4312 536.226 96.5901C536.089 95.7433 536.358 94.8939 537.035 94.042L542.609 87.0266L539.205 84.9867L541.275 82.3809L544.679 84.4208L547.744 80.5623L551.203 82.6351L548.137 86.4936L551.87 88.7309L549.8 91.3367L546.067 89.0993L540.931 95.5636C540.533 96.0647 540.59 96.4688 541.103 96.7759L543.738 98.3552L541.667 100.961L537.825 98.6578Z" fill="#D72E67"/>
<path d="M554.239 100.176L554.741 99.5954C555.453 98.7724 556.218 98.2112 557.036 97.9117C557.871 97.624 558.854 97.5707 559.983 97.7518L560.606 97.8554C561.703 98.041 562.633 98.08 563.397 97.9725C564.161 97.8649 564.821 97.4884 565.38 96.8429C565.784 96.3749 565.992 95.8921 566.003 95.3945C566.046 94.8925 565.912 94.4012 565.601 93.9206C565.29 93.4401 564.822 92.9958 564.196 92.5879C563.553 92.1683 562.888 91.8863 562.203 91.7419C561.535 91.6092 560.882 91.6374 560.243 91.8266C559.623 92.0274 559.061 92.4183 558.559 92.9992L558.098 93.5317L554.614 91.2589L555.033 90.7748C555.995 89.6613 557.129 88.8993 558.435 88.4887C559.74 88.0782 561.092 88.0011 562.491 88.2576C563.904 88.4979 565.254 89.0376 566.54 89.8768C567.809 90.7044 568.753 91.6485 569.373 92.7091C570.011 93.7814 570.295 94.8751 570.225 95.9904C570.155 97.1057 569.701 98.1475 568.864 99.1157C568.027 100.084 567.139 100.755 566.202 101.127C565.279 101.484 564.346 101.658 563.403 101.649C562.493 101.636 561.606 101.562 560.744 101.429L560.121 101.325C559.687 101.244 559.325 101.26 559.032 101.372C558.753 101.468 558.461 101.693 558.154 102.048L557.777 102.484L554.239 100.176ZM551.008 107.306C550.294 106.84 549.867 106.234 549.73 105.488C549.624 104.738 549.864 104.024 550.45 103.346C551.037 102.668 551.752 102.277 552.597 102.172C553.474 102.063 554.27 102.241 554.985 102.707C555.718 103.185 556.137 103.799 556.242 104.55C556.362 105.284 556.129 105.99 555.543 106.668C554.957 107.345 554.234 107.745 553.375 107.866C552.53 107.971 551.741 107.784 551.008 107.306Z" fill="#D72E67"/>
</svg>
